<svg xmlns="http://www.w3.org/2000/svg" width="57" height="32" viewBox="0 0 57 32"><title>icons-roller-blade-01</title><path d="M14.649 3.818l-2.552 6.861c-.113.302-.17.662-.17 1.058 0 .718.17 1.512.491 2.174.284.605.68 1.096 1.153 1.266.113.038.227.057.359.057h7.107c.567 0 1.04.076 1.474.265s.813.454 1.21.851l1.229 1.172h7.466l1.134-.605.284-.076h10.585c.491 0 .851-.189 1.058-.473.151-.189.227-.416.265-.662s.019-.51-.057-.737a1.378 1.378 0 0 0-.094-.246h-12.38v-1.191h10.037l-5.122-1.777c-2.533-.888-4.763-2.325-6.748-3.969l-1.89 1.096a2.35 2.35 0 0 1-1.777.227 2.568 2.568 0 0 1-1.058-.605l-3.516 2.022 1.058 1.588c.284.435.756.851 1.361 1.134.548.265 1.21.435 1.947.435h1.323v1.191h-1.323a5.602 5.602 0 0 1-2.457-.548c-.794-.378-1.436-.945-1.833-1.55l-1.096-1.644-1.077.624-4.196 2.419-2.098-3.648.51-.302 4.536-2.627-.095-.132c-.208-.321-.416-.548-.643-.68-.208-.132-.473-.189-.794-.189h-1.096V5.406h1.096c.567 0 1.002.113 1.418.359.378.227.699.567 1.021 1.04l.132.189 3.742-2.155a2.27 2.27 0 0 1 0-1.229 2.31 2.31 0 0 1 1.077-1.418l.246-.151c-.132-.151-.208-.227-.302-.284s-.246-.076-.491-.095a31.978 31.978 0 0 1-1.777-.17c-1.493-.151-2.949-.302-4.536-.132-.813.076-1.796.435-2.627.945-.737.491-1.323 1.002-1.512 1.512zm33.587 16.973c.227-.076.454-.151.699-.189.265-.057.548-.076.813-.076 1.191 0 2.249.473 3.024 1.247s1.248 1.852 1.248 3.024c0 1.191-.473 2.249-1.248 3.024s-1.852 1.247-3.024 1.247a4.242 4.242 0 0 1-3.024-1.247 4.236 4.236 0 0 1-1.229-2.608 13.575 13.575 0 0 0-1.474-.265l-.454-.057a6.154 6.154 0 0 0 1.815 4.291 6.185 6.185 0 0 0 4.385 1.815 6.248 6.248 0 0 0 4.385-1.815 6.185 6.185 0 0 0 1.815-4.385 6.248 6.248 0 0 0-1.815-4.385 6.185 6.185 0 0 0-4.385-1.815c-.737 0-1.455.132-2.136.378a5.529 5.529 0 0 0-1.115.548l1.72 1.266zm-1.493 4.764c.132.548.416 1.04.813 1.455.567.567 1.342.907 2.193.907s1.626-.34 2.193-.907c.567-.567.907-1.342.907-2.193s-.34-1.626-.907-2.193a3.086 3.086 0 0 0-2.193-.907h-.227l1.815 1.304c.189.113.359.321.473.529s.189.454.189.68v.718c0 .284-.076.567-.208.813a1.649 1.649 0 0 1-.718.718 2.283 2.283 0 0 1-1.04.246c-.454 0-.945-.113-1.474-.397a15.031 15.031 0 0 0-1.815-.775zm-6.899-.832v.057c0 1.191-.473 2.249-1.248 3.024s-1.852 1.247-3.024 1.247c-1.191 0-2.249-.473-3.024-1.247s-1.247-1.852-1.247-3.024v-.057h-1.909v.057c0 1.701.699 3.251 1.815 4.385 1.115 1.115 2.665 1.815 4.385 1.815s3.251-.699 4.385-1.815a6.185 6.185 0 0 0 1.815-4.385v-.038c-.662-.019-1.304-.019-1.947-.019zm-7.353.302c.038.756.378 1.436.869 1.966.567.567 1.342.907 2.193.907s1.626-.34 2.193-.907c.397-.378.68-.869.813-1.399-.416.378-1.021.907-1.644.907H34.76c-.643 0-1.285-.586-1.701-.964l-.076-.076-.491-.435zm-6.539-.283v.057c0 1.191-.473 2.249-1.247 3.024s-1.852 1.247-3.024 1.247c-1.191 0-2.249-.473-3.024-1.247s-1.247-1.852-1.247-3.024v-.057c-.643 0-1.266 0-1.909.019v.038c0 1.701.699 3.251 1.815 4.385a6.185 6.185 0 0 0 4.385 1.815 6.248 6.248 0 0 0 4.385-1.815 6.185 6.185 0 0 0 1.815-4.385v-.057h-1.947zm-7.277.832c.151.548.435 1.021.775 1.399.567.567 1.342.907 2.193.907s1.626-.34 2.193-.907c.51-.51.851-1.21.907-1.966l-.491.435-.076.076c-.416.397-1.058.964-1.701.964H20.32c-.624 0-1.229-.529-1.644-.907zm-6.899-.379a4.228 4.228 0 0 1-1.229 2.608 4.271 4.271 0 0 1-3.024 1.247c-1.191 0-2.249-.473-3.024-1.247s-1.248-1.852-1.248-3.024c0-1.191.473-2.249 1.248-3.024s1.852-1.247 3.024-1.247c.302 0 .624.038.945.113.189.038.378.095.567.17l1.758-1.266a5.339 5.339 0 0 0-1.153-.548 6.042 6.042 0 0 0-2.098-.359 6.248 6.248 0 0 0-4.385 1.815 6.185 6.185 0 0 0-1.815 4.385c0 1.701.699 3.251 1.815 4.385a6.185 6.185 0 0 0 4.385 1.815 6.248 6.248 0 0 0 4.385-1.815 6.19 6.19 0 0 0 1.815-4.291l-.454.057a9.657 9.657 0 0 0-1.512.227zm-4.045-3.496c-.076 0-.151 0-.227-.038-.851 0-1.626.34-2.193.907s-.907 1.342-.907 2.193.34 1.626.907 2.193 1.342.907 2.193.907 1.626-.34 2.193-.907c.397-.378.68-.869.813-1.418-.605.208-1.21.454-1.815.775-.529.284-1.021.397-1.474.397-.397 0-.737-.095-1.04-.246-.302-.17-.567-.416-.718-.718a1.679 1.679 0 0 1-.208-.813v-.718c0-.227.076-.473.189-.68.132-.208.302-.397.473-.529L7.732 21.7zm22.7-14.724c-1.399-1.266-2.646-2.627-3.799-3.95l-.435.246c-.265.151-.454.416-.529.699s-.038.605.113.869l1.512 2.627c.151.265.416.454.699.529s.605.038.869-.113l1.569-.907zm-11.927 2.74l-2.155 1.229.926 1.607 2.155-1.248-.926-1.588zm6.559-3.78l-5.538 3.194.926 1.607 5.538-3.194-.926-1.607zm5.576 7.617v1.191h1.852v-1.191h-1.852zm14.649 5.368a7.339 7.339 0 0 1 1.928-1.058 7.24 7.24 0 0 1 2.533-.454c2.041 0 3.875.832 5.217 2.155 1.342 1.342 2.155 3.175 2.155 5.217s-.832 3.875-2.155 5.217c-1.342 1.342-3.175 2.155-5.217 2.155s-3.875-.832-5.217-2.155a7.443 7.443 0 0 1-1.871-3.157 7.449 7.449 0 0 1-1.871 3.157c-1.342 1.342-3.175 2.155-5.217 2.155s-3.875-.832-5.217-2.155a7.183 7.183 0 0 1-1.72-2.722 7.421 7.421 0 0 1-1.72 2.722c-1.342 1.342-3.175 2.155-5.217 2.155s-3.875-.832-5.217-2.155a7.443 7.443 0 0 1-1.871-3.157 7.449 7.449 0 0 1-1.871 3.157c-1.342 1.342-3.175 2.155-5.217 2.155s-3.875-.832-5.217-2.155C.964 28.655.151 26.822.151 24.78s.832-3.875 2.155-5.217a7.325 7.325 0 0 1 5.217-2.155c.851 0 1.701.151 2.514.435a6.984 6.984 0 0 1 1.947 1.058c.227-.057.454-.095.718-.095h4.971c1.607 0 3.005-.359 4.366-.699.473-.113.964-.246 1.436-.359l-.567-.548c-.302-.284-.567-.491-.851-.605s-.605-.17-1.002-.17h-7.107c-.265 0-.529-.057-.775-.151-.775-.284-1.399-1.002-1.796-1.871a6.622 6.622 0 0 1-.605-2.684c0-.529.076-1.04.246-1.474l2.552-6.861c.284-.775 1.058-1.493 1.985-2.06C16.519.738 17.71.322 18.693.228c1.701-.17 3.194-.019 4.763.132.548.057 1.115.113 1.739.151.435.038.718.095.983.246s.454.34.718.662c1.474 1.758 3.157 3.648 5.103 5.311 1.928 1.644 4.083 3.062 6.54 3.913l6.748 2.344c.813.284 1.323.907 1.55 1.626.132.416.151.851.094 1.285-.076.435-.227.851-.491 1.191-.435.567-1.096.945-2.004.945h-9.394l.227.057c1.38.359 2.76.699 4.366.699h4.971c.208.038.454.076.68.132zM8.146 25.309c1.626-.869 3.289-1.323 5.066-1.531 1.644-.227 3.27-.246 4.895-.208l.378.151 1.058.945c.284.265.699.643.907.643h2.155c.189 0 .624-.378.907-.643l.076-.076.964-.869.397-.151h7.542l.397.151.964.869.076.076c.284.265.699.643.907.643h2.155c.189 0 .624-.378.907-.643l.076-.076.964-.869.378-.151c1.626-.019 3.251-.019 4.895.208 1.663.227 3.327.662 4.952 1.531.34.189.662.265.926.265a.93.93 0 0 0 .473-.113.578.578 0 0 0 .246-.227.602.602 0 0 0 .057-.265v-.718a.38.38 0 0 0-.038-.113c-.038-.057-.094-.113-.132-.151l-4.99-3.591c-.151-.095-.321-.208-.548-.284a1.655 1.655 0 0 0-.548-.095h-4.971c-1.758 0-3.213-.359-4.669-.737-.813-.208-1.607-.416-2.438-.548h-7.75c-.832.132-1.644.34-2.438.548-1.455.359-2.911.737-4.669.737h-4.971c-.208 0-.397.038-.548.095a2.09 2.09 0 0 0-.548.284l-4.99 3.591a.355.355 0 0 0-.132.151c-.019.057-.038.095-.038.113v.718c0 .095.019.189.057.265.057.095.132.17.246.227a.918.918 0 0 0 .473.113c.265 0 .586-.076.926-.265z"/></svg>