<svg xmlns="http://www.w3.org/2000/svg" width="32" height="32" viewBox="0 0 32 32"><title>icons-roller-blade-helmet</title><path d="M15.99 32.078c-8.864 0-16.088-7.224-16.088-16.088S7.126-.098 15.99-.098c4.315 0 8.356 1.679 11.402 4.725 3.026 3.046 4.705 7.068 4.686 11.363 0 8.864-7.224 16.088-16.088 16.088zm0-31.199C7.653.879.878 7.654.878 15.991S7.653 31.103 15.99 31.103s15.112-6.775 15.112-15.112c0-4.022-1.562-7.81-4.393-10.68C23.839 2.46 20.032.879 15.99.879zm0 24.971c-5.428 0-9.86-4.432-9.86-9.86s4.432-9.86 9.86-9.86c5.428 0 9.86 4.432 9.86 9.86s-4.432 9.86-9.86 9.86zm0-18.743c-4.901 0-8.883 3.983-8.883 8.883s3.983 8.883 8.883 8.883c4.901 0 8.883-3.983 8.883-8.883S20.89 7.107 15.99 7.107z"/><path d="M17.064 24.581h-2.128c-.8 0-1.464-.664-1.464-1.464s.664-1.464 1.464-1.464h2.128c.8 0 1.464.664 1.464 1.464s-.664 1.464-1.464 1.464zm-2.128-1.953c-.273 0-.488.215-.488.488s.215.488.488.488h2.128c.273 0 .488-.215.488-.488s-.215-.488-.488-.488h-2.128zm-2.929.84c-.351 0-.703-.117-.957-.371l-1.581-1.425c-.293-.254-.449-.605-.469-.996s.098-.761.371-1.054c.527-.586 1.464-.644 2.05-.117l1.581 1.425c.586.527.644 1.425.117 2.05a1.527 1.527 0 0 1-1.113.488zm-1.581-3.339h-.039c-.137 0-.254.059-.332.156s-.117.215-.117.351c0 .137.059.254.156.332l1.581 1.425c.195.176.508.156.664-.039a.488.488 0 0 0-.039-.683l-1.581-1.425c-.059-.078-.176-.117-.293-.117zm9.996 3.027c-.371 0-.722-.137-1.015-.41-.586-.547-.586-1.464-.039-2.05l1.484-1.523a1.467 1.467 0 0 1 2.05-.039c.293.273.449.625.449 1.035 0 .39-.156.761-.41 1.035l-1.484 1.523a1.5 1.5 0 0 1-1.035.43zm1.465-3.456a.457.457 0 0 0-.332.137l-1.484 1.523a.47.47 0 0 0-.137.351c0 .117.059.234.137.332a.47.47 0 0 0 .351.137.556.556 0 0 0 .332-.137l1.484-1.523a.51.51 0 0 0 .137-.332.471.471 0 0 0-.137-.332.45.45 0 0 0-.351-.156zm-5.897 1.249c-2.733 0-4.94-2.226-4.94-4.959s2.206-4.959 4.94-4.959c2.733 0 4.959 2.226 4.959 4.959s-2.226 4.959-4.959 4.959zm0-8.942c-2.187 0-3.963 1.796-3.963 3.983s1.777 3.983 3.963 3.983a4 4 0 0 0 3.983-3.983 4 4 0 0 0-3.983-3.983zm7.185 6.463c-.8 0-1.464-.664-1.464-1.464v-2.128c0-.8.664-1.464 1.464-1.464s1.464.664 1.464 1.464v2.128a1.45 1.45 0 0 1-1.464 1.464zm0-4.081a.484.484 0 0 0-.488.488v2.128c0 .273.215.488.488.488s.488-.215.488-.488v-2.128a.484.484 0 0 0-.488-.488zM8.825 18.47c-.8 0-1.464-.664-1.464-1.464v-2.128c0-.8.664-1.464 1.464-1.464s1.464.664 1.464 1.464v2.128c-.02.82-.664 1.464-1.464 1.464zm0-4.081a.484.484 0 0 0-.488.488v2.128c0 .273.215.488.488.488s.469-.215.488-.508v-2.109a.484.484 0 0 0-.488-.488zm1.288-1.21c-.371 0-.742-.137-1.015-.41a1.373 1.373 0 0 1-.449-1.035c0-.39.156-.761.41-1.035l1.484-1.523a1.467 1.467 0 0 1 2.05-.039c.293.273.449.625.449 1.015s-.137.742-.41 1.035l-1.484 1.523a1.327 1.327 0 0 1-1.035.469zm1.465-3.456a.471.471 0 0 0-.332.137l-1.484 1.523a.51.51 0 0 0-.137.332c0 .137.059.254.137.332.098.098.234.137.351.137s.234-.059.332-.137l1.484-1.523a.47.47 0 0 0 .137-.351.556.556 0 0 0-.137-.332.546.546 0 0 0-.351-.117zm9.996 3.026c-.351 0-.703-.117-.957-.371l-1.581-1.425c-.586-.527-.644-1.425-.117-2.05.527-.586 1.464-.644 2.05-.117l1.581 1.425c.586.527.644 1.464.117 2.05a1.457 1.457 0 0 1-1.093.488zm-1.933-3.182a.488.488 0 0 0 .039.683l1.581 1.425c.098.078.215.117.351.117s.254-.059.332-.156a.49.49 0 0 0-.039-.683l-1.581-1.425c-.098-.078-.215-.117-.351-.117s-.254.059-.332.156zm-2.577.683h-2.128c-.8 0-1.464-.664-1.464-1.464 0-.82.644-1.464 1.464-1.464h2.128c.8 0 1.464.664 1.464 1.464s-.664 1.464-1.464 1.464zm-2.128-1.952c-.273 0-.488.215-.488.488s.215.488.488.488h2.128c.273 0 .488-.215.488-.488s-.215-.488-.488-.488h-2.128z"/></svg>